<svg xmlns="http://www.w3.org/2000/svg" width="505.86" height="299.07" viewBox="0 0 505.86 299.07"><title>cpr-white</title><path d="M45.89,235.83a25.17,25.17,0,0,1,7.33,1,2.41,2.41,0,0,1,1.72,2.3l1.72,9.48,15.37.72V226.78c-4.45-2.87-14.36-6-25.56-6-23,0-39.34,13.07-39.34,39.92,0,21.82,11.63,38.05,37.62,38.05,10.48,0,20.67-3,27.28-7l-5.6-13.35a45.87,45.87,0,0,1-18,4.16c-10.2,0-18.52-5.31-18.52-24C30,241.72,37.28,235.83,45.89,235.83Z" transform="translate(-3.07 -106.47)" fill="#fff"/><path d="M91.12,284.65l-7.18,1V297h40.49V285.65l-7-1c-2.15-.29-2.29-.58-2.29-2.88V188.59H85.23l-1.58,11.63,7.9,2.73c1.43.43,1.86,1.43,1.86,3v75.81C93.41,283.93,93.13,284.36,91.12,284.65Z" transform="translate(-3.07 -106.47)" fill="#fff"/><path d="M141.65,284.65l-7.32,1V297h40.92V285.65l-7.32-1c-2.16-.29-2.3-.58-2.3-2.88V222.19H135.91l-1.58,11.63,7.75,2.73c1.44.43,1.87,1.43,1.87,3v42.21C144,283.93,143.66,284.36,141.65,284.65Z" transform="translate(-3.07 -106.47)" fill="#fff"/><path d="M152.85,185.14c-8.18,0-12.92,4.46-12.92,12.64s4.74,12.92,12.92,12.92c8.33,0,13.07-4.74,13.07-12.92S161.18,185.14,152.85,185.14Z" transform="translate(-3.07 -106.47)" fill="#fff"/><path d="M260.39,281.77V245.16c0-15.79-6-24.41-21.68-24.41-9.76,0-18.09,3.88-25.27,9.19l-.58-.29-1.14-7.46H186.59l-1.73,11.63,7.76,2.73c1.43.43,1.87,1.43,1.87,3v42.21c0,2.16-.29,2.59-2.3,2.88l-6.46.86V297h39.63V285.65l-6.9-1c-2.15-.29-2.29-.58-2.29-2.88V243.3c3-2.3,9.62-5.32,14.93-5.32,7.18,0,7.61,5.75,7.61,12.64V297h31.16V285.65l-7.18-1C260.53,284.36,260.39,284.07,260.39,281.77Z" transform="translate(-3.07 -106.47)" fill="#fff"/><path d="M280.19,311.64c0,11.34,9.91,17.95,35.9,17.95,25,0,39.49-9.33,39.49-25.85,0-19.09-14.65-19.81-39.49-21.39L302,281.49l4.74-7.61a45.52,45.52,0,0,0,11.34,1.29c18.09,0,30.58-9.33,30.58-25.27a22.71,22.71,0,0,0-5.31-14.5l13.21-1v-12.2h-28a49.43,49.43,0,0,0-13.21-1.44c-22,0-32.88,11.35-32.88,27.86,0,10.62,5.31,18.09,12.35,21.53-3.45,3.16-6.32,5.89-8.9,8.62s-4.17,5.6-4.17,8.76a9.57,9.57,0,0,0,6.32,9.47C283.07,301.73,280.19,305.18,280.19,311.64ZM316.66,235c8.19,0,13.07,4.45,13.07,12.92,0,7.47-5.46,12.2-13.5,12.2-9.47,0-13.35-4.88-13.35-11.91C302.88,238.84,308.77,235,316.66,235Zm-15.79,65.9,21,1.44c6.9.43,12.35.72,12.35,5.31,0,7.75-11.34,8.33-19.67,8.33-10.05,0-17.37-1.73-17.37-7.47C297.14,305.61,299,303.17,300.87,300.87Z" transform="translate(-3.07 -106.47)" fill="#fff"/><path d="M403,298.72c10.77,0,20.53-3,29.43-7.32l-5.31-14.22c-9.76,3.59-15.79,4.88-21.39,4.88-11.78,0-16.23-6.75-16.95-16.94h43.94c.14-2.87.29-7.9.29-9.62,0-24.84-12.64-34.75-31.59-34.75-19.67,0-35.61,12.35-35.61,38.34C365.76,281.49,375.24,298.72,403,298.72Zm-2-62.46c5.89,0,10.62,3.16,10.77,15.22H388.88C389.74,239.71,394.76,236.26,400.94,236.26Z" transform="translate(-3.07 -106.47)" fill="#fff"/><path d="M454.92,239.56v42.07c0,2.16-.29,2.59-2.3,2.87l-6.46.86V297h46.95V285.51l-14.21-1.15c-2.16-.14-2.3-.57-2.3-2.87V243.44c2.15-1.87,6.6-5,10.34-5,1.14,0,1.57.29,1.86,1.58l1.44,7.61,17.23.58V222A67.5,67.5,0,0,0,495,220.75c-9.19,0-15.51,5.6-20.25,12.92h-.86l-1.72-11.48H446.88l-1.58,11.63,7.75,2.73C454.49,237,454.92,238,454.92,239.56Z" transform="translate(-3.07 -106.47)" fill="#fff"/><path d="M29.63,352.71H7.45v3.94l4.52.51c1,.07,1.15.36,1.15,1.43v40.27c0,1.08-.14,1.29-1.15,1.43l-4.52.51v3.87H31.06V400.8l-10.26-.58c-1.08-.14-1.15-.28-1.15-1.43V385.08h7.61c12.13,0,19.67-4.74,19.67-17.09C46.93,359.74,42.91,352.71,29.63,352.71Zm-2.95,27.13h-7V358h8c8.25,0,12.49,2.8,12.49,10.33C40.11,378.26,33.93,379.84,26.68,379.84Z" transform="translate(-3.07 -106.47)" fill="#fff"/><path d="M91.29,398.57,86.41,386c-1.08-2.65-1.65-4.16-4-5.24,5.81-2.08,10-6.32,10-14,0-6.89-3.3-14.06-16.22-14.06h-22v3.94l4.52.51c1,.07,1.15.36,1.15,1.43v40.27c0,1.08-.14,1.29-1.15,1.43l-4.52.51v3.87H72.27V400.8l-4.74-.58c-1.08-.14-1.15-.28-1.15-1.43v-16.3h7.9c2.87,0,4,.72,4.88,3l6,14.86-5.67.43v3.87H97.89v-3.8l-4.38-.65A2.36,2.36,0,0,1,91.29,398.57ZM73,377.33H66.38V358H72c8.76,0,13.5,1.72,13.5,9C85.48,375.32,79.8,377.33,73,377.33Z" transform="translate(-3.07 -106.47)" fill="#fff"/><path d="M125.75,351.77c-16.37,0-25,11.42-25,26.63,0,15.86,7.32,27.13,24,27.13,16.44,0,24.62-11,24.62-27.92C149.36,363.19,142,351.77,125.75,351.77ZM125.1,400c-10.55,0-17.51-7.18-17.51-21.61,0-13.78,7.46-21.1,18-21.1s16.94,7.25,16.94,21C142.54,393.12,135.51,400,125.1,400Z" transform="translate(-3.07 -106.47)" fill="#fff"/><path d="M210.38,398.57,205.5,386c-1.08-2.65-1.65-4.16-4-5.24,5.81-2.08,10-6.32,10-14,0-6.89-3.3-14.06-16.22-14.06h-22v3.94l4.52.51c1,.07,1.15.36,1.15,1.43v40.27c0,1.08-.14,1.29-1.15,1.43l-4.52.51v3.87h18.09V400.8l-4.74-.58c-1.08-.14-1.15-.28-1.15-1.43v-16.3h7.9c2.87,0,3.95.72,4.88,3l6,14.86-5.68.43v3.87H217v-3.8l-4.38-.65A2.36,2.36,0,0,1,210.38,398.57Zm-18.3-21.24h-6.61V358h5.6c8.76,0,13.49,1.72,13.49,9C204.56,375.32,198.89,377.33,192.08,377.33Z" transform="translate(-3.07 -106.47)" fill="#fff"/><path d="M244.84,351.77c-16.37,0-25,11.42-25,26.63,0,15.86,7.32,27.13,24,27.13,16.44,0,24.62-11,24.62-27.92C268.45,363.19,261.13,351.77,244.84,351.77ZM244.19,400c-10.55,0-17.51-7.18-17.51-21.61,0-13.78,7.46-21.1,18-21.1s16.94,7.25,16.94,21C261.63,393.12,254.6,400,244.19,400Z" transform="translate(-3.07 -106.47)" fill="#fff"/><path d="M300.61,351.77c-16.36,0-25,11.42-25,26.63,0,15.86,7.32,27.13,24,27.13,16.44,0,24.62-11,24.62-27.92C324.23,363.19,316.91,351.77,300.61,351.77ZM300,400c-10.55,0-17.52-7.18-17.52-21.61,0-13.78,7.47-21.1,18-21.1s16.94,7.25,16.94,21C317.41,393.12,310.38,400,300,400Z" transform="translate(-3.07 -106.47)" fill="#fff"/><path d="M332.2,356.65l4.52.51c1,.07,1.15.36,1.15,1.43v40.27c0,1.08-.14,1.29-1.15,1.43l-4.52.51v3.87h24V400.8l-10.55-.58c-1.07-.14-1.15-.28-1.15-1.43v-18h18.88v-5.17H344.47V357.8h16.37c.79,0,1.08.22,1.22.94l1,5.52,4.88.29V352.71H332.2Z" transform="translate(-3.07 -106.47)" fill="#fff"/><path d="M375.13,356.58l5.24.5c1,.08,1.15.36,1.15,1.44v40.34c0,1.08-.15,1.36-1.15,1.43l-5.24.51v3.87h19.66V400.8l-5.52-.58c-1.08-.14-1.15-.28-1.15-1.43V358.52c0-1.08.07-1.22,1.15-1.36l5.52-.58v-3.87H375.13Z" transform="translate(-3.07 -106.47)" fill="#fff"/><path d="M436.86,356.58l4.52.5c1,.08,1.15.36,1.15,1.44v37.25L417,352.63H402.91v3.95l4.52.5c1,.08,1.15.36,1.15,1.44v40.34c0,1.08-.15,1.29-1.15,1.43l-4.52.51v3.87h17.44V400.8l-4.81-.58c-1.08-.14-1.15-.28-1.15-1.43V361.25l26.2,43.42h7.68V358.52c0-1.08.07-1.22,1.15-1.36l4.81-.58v-3.87H436.86Z" transform="translate(-3.07 -106.47)" fill="#fff"/><path d="M489.26,380.48l-.79,4.67h9.76v12.7a1,1,0,0,1-1,1.22,43.37,43.37,0,0,1-8.83,1.08c-13.49,0-20.53-7.68-20.53-21.82,0-13.42,7.18-21.17,18.52-21.17a29.54,29.54,0,0,1,9.33,1.58c.72.21.86.64,1,1.29l1.15,6.67,4.89.36V355.65c-3.67-2.44-9.84-3.88-15.94-3.88-17.3,0-25.84,11.34-25.84,26.56,0,15.65,7.18,27.2,26.56,27.2,5.81,0,12.77-.79,17.22-2.94V385.94c0-.93.29-1.15,1.15-1.22l3-.29v-3.95Z" transform="translate(-3.07 -106.47)" fill="#fff"/><rect x="1.71" y="217.7" width="257.73" height="3.99" fill="#fff"/><rect x="366.95" y="217.37" width="136.26" height="3.99" fill="#fff"/><path d="M212.61,126.74l-6.5,2.45-57.32,21.54L266.4,195a4,4,0,0,0,5-5.55A150.32,150.32,0,0,0,212.61,126.74Z" transform="translate(-3.07 -106.47)" fill="#fff"/><path d="M8.48,195l129-48.49h0l65.84-24.75A149.66,149.66,0,0,0,3.51,189.42,4,4,0,0,0,8.48,195Z" transform="translate(-3.07 -106.47)" fill="#fff"/></svg>