<svg xmlns="http://www.w3.org/2000/svg" width="490.16" height="286.28" viewBox="0 0 490.16 286.28"><title>logo</title><path d="M82.87,289.15c-6.21,3.78-16.73,5.78-26.3,5.78-26.19,0-36.92-15.25-36.92-39.66,0-22.4,12.93-39.13,39.13-39.13,8.73,0,18.09,2.21,23.88,6v20.62l-11.57-.95L69.4,231.5a2.11,2.11,0,0,0-1.68-1.89,33.41,33.41,0,0,0-9.36-1.26c-13.36,0-21.88,9-21.88,26.92,0,18.62,8.1,27.67,21.14,27.67a40.08,40.08,0,0,0,10.52-1.37c1.26-.31,1.58-.63,1.89-2.21l1.58-9.78H82.87Z" transform="translate(-11.3 -104.22)" fill="#fff"/><path d="M91.6,293.67v-8.31l6.63-.74c1.47-.21,1.68-.52,1.68-2.1V228.66c0-1.58-.21-2-1.68-2.1l-6.63-.74v-8.31h35v8.31l-8.73.84c-1.58.11-1.69.53-1.69,2v53.76h18.73c1.16,0,1.47-.11,1.68-1.16l1.68-10.52h11.58v22.93Z" transform="translate(-11.3 -104.22)" fill="#fff"/><path d="M157,293.67v-8.2l7.68-.74c1.47-.11,1.68-.53,1.68-2.1V228.77c0-1.58-.21-2-1.68-2.11l-7.68-.73v-8.42h35.34v8.42l-8.1.84c-1.57.21-1.68.42-1.68,2v53.75c0,1.68.11,1.89,1.68,2.1l8.1.85v8.2Z" transform="translate(-11.3 -104.22)" fill="#fff"/><path d="M253.81,293.67l-33.56-54.91v43.76c0,1.68.1,1.89,1.68,2.1l7,.85v8.2H199.74v-8.2l6.62-.74c1.48-.21,1.69-.53,1.69-2.1V228.56c0-1.58-.21-2-1.69-2.11l-6.62-.73v-8.21h26.09l33,55V228.77c0-1.58-.21-2-1.69-2.11l-6.62-.73v-8.42h29.24v8.42l-7.05.84c-1.58.21-1.68.42-1.68,2v64.9Z" transform="translate(-11.3 -104.22)" fill="#fff"/><path d="M352.9,265.79c-1.26.11-1.68.42-1.68,1.48v22.61c-8,3.79-18.52,5.05-27.25,5.05-28.72,0-38.6-16.93-38.6-39.55s12.94-39.24,39.44-39.24c7.58,0,17.36,1.9,23.78,6.1v19.89l-11.68-.85-1.58-9.46c-.31-1.48-.73-1.9-1.68-2.11a39.38,39.38,0,0,0-9.68-1.36c-13.57,0-21.67,10.3-21.67,26.82,0,17.36,7.37,27.67,22.41,27.67a56.39,56.39,0,0,0,8.73-.74c1.16-.21,1.68-.53,1.68-1.89V266.43H323.45l1.47-9.47h32.29v8.41Z" transform="translate(-11.3 -104.22)" fill="#fff"/><path d="M362.16,293.67v-8.2l6.63-.74c1.47-.21,1.68-.53,1.68-2.1v-54c0-1.58-.21-2-1.68-2.1l-6.63-.74v-8.31h56v21.25l-11.57-.53-1.47-8c-.21-1.05-.63-1.37-1.79-1.37H386.77v20.72h24.62v11.68H386.77v21.15H405.6c1.16,0,1.48-.11,1.69-1.16L409,272h11.47v21.67Z" transform="translate(-11.3 -104.22)" fill="#fff"/><path d="M473.24,293.67l-9.46-26.4c-1.27-3.58-2.63-4.74-6.21-4.74h-4.95v19.78c0,1.68.11,1.89,1.69,2.1l7.36.85v8.41H428.11v-8.41l6.63-.74c1.47-.11,1.68-.53,1.68-2.1V228.66c0-1.58-.21-1.89-1.68-2.1l-6.63-.74v-8.31H464c18.93,0,24.51,10.1,24.51,21s-5.68,16.62-13.89,20.2c3.05,1.47,4.42,4,6.1,8.41l5.79,15c.84,1.57,1.58,1.78,3.15,2l6.52,1.06v8.41Zm-15.78-42.08c7.58,0,14.31-1.78,14.31-12.09,0-8.1-4.52-10.52-13.89-10.52h-5.26v22.61Z" transform="translate(-11.3 -104.22)" fill="#fff"/><path d="M22.38,389.67V386l4.34-.48c1-.14,1.1-.34,1.1-1.38V345.47c0-1-.13-1.31-1.1-1.38l-4.34-.48v-3.78H43.66c12.74,0,16.59,6.74,16.59,14.66,0,11.84-7.23,16.39-18.86,16.39h-7.3V384c0,1.1.07,1.23,1.1,1.37L45,386v3.72Zm18.46-23.82c6.95,0,12.87-1.52,12.87-11.08,0-7.23-4.06-9.92-12-9.92H34.09v21Z" transform="translate(-11.3 -104.22)" fill="#fff"/><path d="M90.41,389.67V386l5.44-.41-5.72-14.25c-.89-2.2-1.92-2.89-4.68-2.89H77.88V384c0,1.1.07,1.23,1.1,1.37l4.54.55v3.72H66.17V386l4.34-.48c1-.14,1.1-.34,1.1-1.38V345.47c0-1-.13-1.31-1.1-1.38l-4.34-.48v-3.78H87.24c12.39,0,15.56,6.88,15.56,13.49,0,7.37-4,11.43-9.57,13.42,2.27,1,2.82,2.48,3.86,5l4.68,12.05a2.27,2.27,0,0,0,2.13,1.58l4.2.62v3.65Zm-6.2-26.23c6.54,0,12-1.93,12-9.91,0-7-4.54-8.68-12.94-8.68H77.88v18.59Z" transform="translate(-11.3 -104.22)" fill="#fff"/><path d="M109.83,364.47c0-14.59,8.26-25.54,24-25.54s22.65,10.95,22.65,24.78c0,16.25-7.85,26.79-23.62,26.79C116.85,390.5,109.83,379.69,109.83,364.47Zm40.07-.07c0-13.21-6.27-20.17-16.25-20.17s-17.28,7-17.28,20.24c0,13.84,6.68,20.73,16.8,20.73S149.9,378.59,149.9,364.4Z" transform="translate(-11.3 -104.22)" fill="#fff"/><path d="M201.54,389.67V386l5.44-.41-5.72-14.25c-.89-2.2-1.92-2.89-4.68-2.89H189V384c0,1.1.07,1.23,1.1,1.37l4.55.55v3.72H177.31V386l4.33-.48c1-.14,1.1-.34,1.1-1.38V345.47c0-1-.13-1.31-1.1-1.38l-4.33-.48v-3.78h21.06c12.4,0,15.56,6.88,15.56,13.49,0,7.37-4,11.43-9.57,13.42,2.27,1,2.83,2.48,3.86,5l4.68,12.05A2.27,2.27,0,0,0,215,385.4l4.2.62v3.65Zm-6.2-26.23c6.54,0,12-1.93,12-9.91,0-7-4.54-8.68-12.94-8.68H189v18.59Z" transform="translate(-11.3 -104.22)" fill="#fff"/><path d="M221,364.47c0-14.59,8.26-25.54,24-25.54s22.65,10.95,22.65,24.78c0,16.25-7.85,26.79-23.61,26.79C228,390.5,221,379.69,221,364.47ZM261,364.4c0-13.21-6.27-20.17-16.25-20.17s-17.28,7-17.28,20.24c0,13.84,6.68,20.73,16.8,20.73S261,378.59,261,364.4Z" transform="translate(-11.3 -104.22)" fill="#fff"/><path d="M273.43,364.47c0-14.59,8.26-25.54,24-25.54S320,349.88,320,363.71c0,16.25-7.85,26.79-23.62,26.79C280.45,390.5,273.43,379.69,273.43,364.47Zm40.07-.07c0-13.21-6.27-20.17-16.25-20.17s-17.28,7-17.28,20.24c0,13.84,6.68,20.73,16.8,20.73S313.5,378.59,313.5,364.4Z" transform="translate(-11.3 -104.22)" fill="#fff"/><path d="M326.65,389.67V386l4.34-.48c1-.14,1.1-.34,1.1-1.38V345.47c0-1-.14-1.31-1.1-1.38l-4.34-.48v-3.78h34.29v11.36l-4.68-.28-1-5.3c-.14-.69-.41-.9-1.17-.9h-15.7v17.15h18.11v4.95H338.42V384c0,1.1.07,1.23,1.11,1.37l10.12.55v3.72Z" transform="translate(-11.3 -104.22)" fill="#fff"/><path d="M366.79,389.67V386l5-.48c1-.07,1.1-.34,1.1-1.38V345.4c0-1-.14-1.31-1.1-1.37l-5-.49v-3.71h18.87v3.71l-5.3.55c-1,.14-1.11.28-1.11,1.31V384c0,1.1.07,1.23,1.11,1.37l5.3.55v3.72Z" transform="translate(-11.3 -104.22)" fill="#fff"/><path d="M428.55,389.67,403.42,348v36c0,1.1.07,1.23,1.1,1.37l4.62.55v3.72H392.41V386l4.33-.48c1-.14,1.11-.34,1.11-1.38V345.4c0-1-.14-1.31-1.11-1.37l-4.33-.49v-3.78H405.9l24.51,41.37V345.4c0-1-.14-1.31-1.1-1.37l-4.34-.49v-3.71h16.66v3.71l-4.61.55c-1,.14-1.1.28-1.1,1.31v44.27Z" transform="translate(-11.3 -104.22)" fill="#fff"/><path d="M490.17,370.53c-.82.07-1.1.28-1.1,1.17v16c-4.27,2.07-10.94,2.83-16.52,2.83-18.59,0-25.47-11.09-25.47-26.1,0-14.59,8.19-25.47,24.78-25.47,5.85,0,11.77,1.38,15.29,3.72v10.94l-4.69-.34-1.1-6.4c-.14-.62-.27-1-1-1.24a28.48,28.48,0,0,0-8.95-1.52c-10.88,0-17.76,7.44-17.76,20.31,0,13.57,6.74,20.93,19.69,20.93a41.94,41.94,0,0,0,8.46-1c.62-.14,1-.34,1-1.17V370.94h-9.36l.75-4.47h18.87v3.79Z" transform="translate(-11.3 -104.22)" fill="#fff"/><path d="M493.79,318.66H19a3,3,0,0,1,0-6H493.79a3,3,0,0,1,0,6Z" transform="translate(-11.3 -104.22)" fill="#fff"/><path d="M495.46,210a5.92,5.92,0,0,1-2.17-.41L255.91,136,19.49,209.59a6,6,0,1,1-4.37-11.17l240.78-94.2,241.74,94.2A6,6,0,0,1,495.46,210Z" transform="translate(-11.3 -104.22)" fill="#fff"/></svg>